<?xml version="1.0" encoding="UTF-8"?><svg id="a" xmlns="http://www.w3.org/2000/svg" xmlns:xlink="http://www.w3.org/1999/xlink" viewBox="0 0 512 512"><defs><clipPath id="b"><path d="m256,452c-2.704,0-5.409-.685-7.844-2.055l-159.998-89.999c-5.038-2.834-8.156-8.165-8.156-13.945v-179.999c0-5.78,3.118-11.111,8.156-13.945L248.156,62.057c4.869-2.739,10.818-2.739,15.687,0l159.997,89.999c5.038,2.834,8.156,8.165,8.156,13.945v179.999c0,5.78-3.118,11.111-8.156,13.945l-159.997,89.999c-2.435,1.37-5.14,2.055-7.844,2.055Zm-143.998-115.357l143.998,80.999,143.998-80.999v-161.284l-143.998-80.999-143.998,80.999v161.284Zm303.995,9.357h.01-.01Z" fill="none" stroke-width="0"/></clipPath><clipPath id="c"><path d="m415.983,182.005c-2.656,0-5.35-.663-7.829-2.058l-159.997-89.999c-7.702-4.332-10.433-14.088-6.101-21.789,4.333-7.701,14.09-10.433,21.789-6.101l159.997,89.999c7.702,4.332,10.433,14.088,6.101,21.789-2.937,5.222-8.367,8.159-13.96,8.159Z" fill="none" stroke-width="0"/></clipPath><clipPath id="d"><path d="m96.017,182.005c-5.593,0-11.022-2.937-13.96-8.159-4.332-7.702-1.601-17.457,6.101-21.789L248.156,62.057c7.7-4.33,17.457-1.601,21.789,6.101,4.332,7.702,1.601,17.457-6.101,21.789l-159.997,89.999c-2.479,1.395-5.174,2.058-7.829,2.058Z" fill="none" stroke-width="0"/></clipPath><clipPath id="e"><path d="m256.015,362.004c-5.593,0-11.022-2.937-13.96-8.159-4.332-7.702-1.601-17.457,6.101-21.789l79.999-45c7.701-4.33,17.457-1.601,21.789,6.101,4.332,7.702,1.601,17.457-6.101,21.789l-79.999,45c-2.479,1.395-5.173,2.058-7.829,2.058Z" fill="none" stroke-width="0"/></clipPath><clipPath id="f"><path d="m176.001,272.001c-8.836,0-16-7.164-16-16v-45c0-8.836,7.163-16,16-16s16,7.164,16,16v45c0,8.836-7.163,16-16,16Z" fill="none" stroke-width="0"/></clipPath><clipPath id="g"><path d="m335.984,227.004c-2.656,0-5.35-.663-7.829-2.058l-79.999-45c-7.702-4.332-10.433-14.088-6.101-21.789,4.333-7.701,14.09-10.433,21.789-6.101l79.999,45c7.702,4.332,10.433,14.088,6.101,21.789-2.937,5.222-8.367,8.159-13.96,8.159Z" fill="none" stroke-width="0"/></clipPath></defs><path d="m256,452c-2.704,0-5.409-.685-7.845-2.055l-159.997-89.999c-5.037-2.834-8.155-8.165-8.155-13.945v-179.999c0-5.78,3.118-11.111,8.155-13.945L248.155,62.057c4.871-2.74,10.818-2.74,15.689,0l159.997,90c5.037,2.834,8.155,8.165,8.155,13.945v179.999c0,5.78-3.118,11.111-8.155,13.945l-159.997,89.999c-2.436,1.37-5.141,2.055-7.845,2.055Zm-143.997-115.356l143.997,80.999,143.997-80.999v-161.284l-143.997-81-143.997,81v161.284Zm303.994,9.357h.01-.01Z" fill="#34a853" stroke-width="0"/><path d="m96.018,182.005c-5.593,0-11.022-2.938-13.96-8.158-4.332-7.702-1.601-17.458,6.101-21.79L248.155,62.057c7.704-4.33,17.458-1.6,21.79,6.101,4.332,7.702,1.601,17.458-6.101,21.79l-159.997,90c-2.48,1.395-5.174,2.058-7.83,2.058Z" fill="#ea4335" stroke-width="0"/><path d="m415.982,182.005c-2.657,0-5.349-.662-7.83-2.058l-159.997-90c-7.701-4.332-10.433-14.088-6.101-21.79,4.333-7.701,14.087-10.432,21.79-6.101l159.997,90c7.701,4.332,10.433,14.088,6.101,21.79-2.938,5.221-8.368,8.158-13.96,8.158Z" fill="#ea4335" stroke-width="0"/><path d="m256,182.002c-8.837,0-16-7.163-16-16v-90c0-8.837,7.163-16,16-16s16,7.163,16,16v90c0,8.837-7.163,16-16,16Z" fill="#ea4335" stroke-width="0"/><path d="m96.003,362.001c-2.793,0-5.584-.73-8.077-2.188-4.907-2.87-7.923-8.127-7.923-13.812v-179.999c0-8.837,7.163-16,16-16s16,7.163,16,16v152.641l56.153-31.587c7.704-4.33,17.457-1.6,21.79,6.101,4.332,7.702,1.601,17.458-6.101,21.79l-79.998,45c-2.437,1.37-5.142,2.055-7.845,2.055Z" fill="#fbbc04" stroke-width="0"/><path d="m415.997,362.001c-2.703,0-5.407-.685-7.845-2.055l-79.998-45c-7.701-4.332-10.433-14.088-6.101-21.79,4.334-7.702,14.086-10.433,21.79-6.101l56.153,31.587v-152.641c0-8.837,7.163-16,16-16s16,7.163,16,16v179.999c0,5.685-3.016,10.941-7.923,13.812-2.493,1.458-5.285,2.188-8.077,2.188Z" fill="#4285f4" stroke-width="0"/><g clip-path="url(#b)"><path d="m48.018,389.004c-5.593,0-11.022-2.938-13.96-8.158-4.332-7.702-1.601-17.458,6.101-21.79l127.998-72c7.704-4.33,17.457-1.6,21.79,6.101,4.332,7.702,1.601,17.458-6.101,21.79l-127.998,72c-2.48,1.395-5.174,2.058-7.83,2.058Z" fill="#fbbc04" stroke-width="0"/><path d="m463.982,389.004c-2.657,0-5.349-.662-7.83-2.058l-127.998-72c-7.701-4.332-10.433-14.088-6.101-21.79,4.334-7.702,14.086-10.433,21.79-6.101l127.998,72c7.701,4.332,10.433,14.088,6.101,21.79-2.938,5.221-8.368,8.158-13.96,8.158Z" fill="#4285f4" stroke-width="0"/></g><g clip-path="url(#c)"><path d="m415.997,362.001c-8.837,0-16-7.163-16-16V112.002c0-8.837,7.163-16,16-16s16,7.163,16,16v233.999c0,8.837-7.163,16-16,16Z" fill="#4285f4" stroke-width="0"/></g><g clip-path="url(#d)"><path d="m96.003,362.001c-2.793,0-5.584-.73-8.077-2.188-4.907-2.87-7.923-8.127-7.923-13.812V112.002c0-8.837,7.163-16,16-16s16,7.163,16,16v206.642l56.153-31.588c7.704-4.33,17.457-1.6,21.79,6.101,4.332,7.702,1.601,17.458-6.101,21.79l-79.998,45c-2.437,1.37-5.142,2.055-7.845,2.055Z" fill="#fbbc04" stroke-width="0"/></g><path d="m335.984,227.005c-2.656,0-5.35-.663-7.83-2.058l-72.154-40.588-72.154,40.588c-7.702,4.332-17.457,1.603-21.79-6.102-4.332-7.701-1.601-17.457,6.101-21.789l80-45c4.869-2.74,10.818-2.74,15.688,0l80,45c7.701,4.332,10.433,14.088,6.101,21.789-2.938,5.222-8.367,8.159-13.96,8.159Z" fill="#ea4335" stroke-width="0"/><path d="m256.015,362.004c-5.593,0-11.022-2.938-13.96-8.158-4.332-7.702-1.601-17.458,6.101-21.79l71.844-40.412v-80.642c0-8.837,7.163-16,16-16s16,7.163,16,16v89.999c0,5.78-3.118,11.111-8.155,13.945l-79.999,45c-2.48,1.395-5.174,2.058-7.83,2.058Z" fill="#4285f4" stroke-width="0"/><path d="m256,362.001c-2.703,0-5.407-.684-7.845-2.055l-79.999-45c-5.037-2.834-8.155-8.165-8.155-13.945v-89.999c0-8.837,7.163-16,16-16s16,7.163,16,16v80.642l47.999,27v-62.642c0-8.837,7.163-16,16-16s16,7.163,16,16v89.999c0,5.685-3.016,10.941-7.923,13.812-2.493,1.458-5.285,2.188-8.077,2.188Z" fill="#fbbc04" stroke-width="0"/><path d="m256.015,272.005c-5.593,0-11.022-2.938-13.96-8.158-4.332-7.702-1.601-17.458,6.101-21.79l79.999-45c7.704-4.331,17.457-1.6,21.79,6.101,4.332,7.702,1.601,17.458-6.101,21.79l-79.999,45c-2.48,1.395-5.174,2.058-7.83,2.058Z" fill="#4285f4" stroke-width="0"/><g clip-path="url(#e)"><path d="m256,452c-8.837,0-16-7.163-16-16v-179.998c0-8.837,7.163-16,16-16s16,7.163,16,16v179.998c0,8.837-7.163,16-16,16Z" fill="#fbbc04" stroke-width="0"/></g><path d="m349.944,203.158c-4.332-7.702-14.088-10.431-21.789-6.101l-72.155,40.587h0v34.36c1.737-.002,3.458-.287,5.093-.836.046-.016.092-.034.138-.05.271-.094.54-.193.806-.301.14-.057.277-.122.416-.183.169-.075.339-.147.506-.227.225-.109.447-.227.668-.348.092-.05.186-.095.278-.147l.089-.05,79.848-44.915c7.702-4.332,10.433-14.088,6.101-21.789Z" fill="#4285f4" stroke-width="0"/><path d="m269.945,158.158c-4.332-7.703-14.089-10.432-21.789-6.101l-79.999,45c-5.038,2.834-8.156,8.165-8.156,13.945s3.118,11.111,8.156,13.945l79.845,44.914.099.056c.081.046.165.086.247.131.231.126.463.249.697.363.153.074.31.14.465.209.153.068.305.139.459.202.251.102.506.195.762.284.06.021.12.046.181.066,1.634.548,3.353.832,5.089.834v-34.36h0s-47.363-26.643-47.363-26.643l55.207-31.054c7.702-4.332,10.433-14.088,6.101-21.789Z" fill="#ea4335" stroke-width="0"/><g clip-path="url(#f)"><path d="m255.985,272.005c-2.657,0-5.349-.662-7.83-2.058l-159.997-90c-7.701-4.332-10.433-14.088-6.101-21.79,4.333-7.701,14.088-10.433,21.79-6.101l159.997,90c7.701,4.332,10.433,14.088,6.101,21.79-2.938,5.221-8.368,8.158-13.96,8.158Z" fill="#ea4335" stroke-width="0"/></g><g clip-path="url(#g)"><path d="m256.015,272.005c-5.593,0-11.022-2.938-13.96-8.158-4.332-7.702-1.601-17.458,6.101-21.79l159.997-90c7.704-4.33,17.458-1.6,21.79,6.101,4.332,7.702,1.601,17.458-6.101,21.79l-159.997,90c-2.48,1.395-5.174,2.058-7.83,2.058Z" fill="#4285f4" stroke-width="0"/></g></svg>